<svg width="35" height="35" viewBox="0 0 35 35" fill="none" xmlns="http://www.w3.org/2000/svg">
<g clip-path="url(#clip0_29_106)">
<path d="M17.3833 0.772705C12.7904 0.772705 12.2128 0.793955 10.4082 0.874705C8.60367 0.959705 7.37452 1.24446 6.2977 1.66521C5.16819 2.09195 4.14509 2.76134 3.29994 3.62658C2.43907 4.47593 1.77273 5.50346 1.34728 6.6377C0.928396 7.71721 0.642794 8.95395 0.560287 10.7602C0.479896 12.5771 0.45874 13.1551 0.45874 17.7748C0.45874 22.3903 0.479896 22.9683 0.560287 24.781C0.64491 26.5915 0.928396 27.8261 1.34728 28.9077C1.78097 30.0255 2.35852 30.9732 3.29994 31.9188C4.23925 32.8645 5.1828 33.4467 6.29558 33.8802C7.37452 34.301 8.60155 34.5878 10.404 34.6707C12.2107 34.7515 12.7861 34.7727 17.3833 34.7727C21.9804 34.7727 22.5537 34.7515 24.3604 34.6707C26.1607 34.5857 27.3941 34.301 28.4709 33.8802C29.5997 33.4533 30.6221 32.7839 31.4666 31.9188C32.408 30.9732 32.9855 30.0255 33.4192 28.9077C33.836 27.8261 34.1216 26.5915 34.2062 24.781C34.2866 22.9683 34.3078 22.3903 34.3078 17.7727C34.3078 13.1551 34.2866 12.5771 34.2062 10.7623C34.1216 8.95396 33.836 7.71721 33.4192 6.6377C32.9938 5.50343 32.3275 4.47589 31.4666 3.62658C30.6217 2.76102 29.5985 2.09158 28.4688 1.66521C27.3899 1.24446 26.1586 0.95758 24.3583 0.874705C22.5516 0.793955 21.9783 0.772705 17.379 0.772705H17.3854H17.3833ZM15.8664 3.83696H17.3854C21.9042 3.83696 22.4395 3.85183 24.2229 3.93471C25.873 4.00908 26.77 4.28746 27.3666 4.51908C28.1557 4.82721 28.7206 5.19696 29.3129 5.79195C29.9053 6.38696 30.2713 6.95221 30.578 7.74696C30.8107 8.34408 31.0858 9.24508 31.1598 10.9026C31.2423 12.694 31.2592 13.2316 31.2592 17.7685C31.2592 22.3053 31.2423 22.8451 31.1598 24.6365C31.0858 26.294 30.8086 27.1928 30.578 27.7921C30.3067 28.5302 29.8736 29.1976 29.3108 29.745C28.7185 30.34 28.1557 30.7076 27.3645 31.0157C26.7721 31.2495 25.8751 31.5257 24.2229 31.6022C22.4395 31.683 21.9042 31.7021 17.3854 31.7021C12.8665 31.7021 12.3292 31.683 10.5458 31.6022C8.89561 31.5257 8.00073 31.2495 7.40414 31.0157C6.66898 30.7435 6.0039 30.3093 5.45782 29.745C4.89455 29.1968 4.4608 28.5287 4.18848 27.79C3.95788 27.1928 3.68075 26.2918 3.6067 24.6343C3.52631 22.843 3.50938 22.3053 3.50938 17.7642C3.50938 13.2252 3.52631 12.6897 3.6067 10.8983C3.68286 9.24083 3.95788 8.33983 4.1906 7.74058C4.49735 6.94796 4.86546 6.38058 5.45782 5.78558C6.05018 5.19058 6.61292 4.82296 7.40414 4.51483C8.00073 4.28108 8.89561 4.00483 10.5458 3.92833C12.107 3.85608 12.7121 3.83483 15.8664 3.83271V3.83696ZM26.4188 6.65896C26.1521 6.65896 25.888 6.71172 25.6416 6.81424C25.3952 6.91676 25.1713 7.06703 24.9827 7.25646C24.7942 7.44589 24.6446 7.67078 24.5425 7.91828C24.4404 8.16579 24.3879 8.43106 24.3879 8.69896C24.3879 8.96685 24.4404 9.23212 24.5425 9.47963C24.6446 9.72713 24.7942 9.95202 24.9827 10.1415C25.1713 10.3309 25.3952 10.4811 25.6416 10.5837C25.888 10.6862 26.1521 10.739 26.4188 10.739C26.9575 10.739 27.4741 10.524 27.8549 10.1415C28.2358 9.75888 28.4498 9.24 28.4498 8.69896C28.4498 8.15791 28.2358 7.63903 27.8549 7.25646C27.4741 6.87388 26.9575 6.65896 26.4188 6.65896ZM17.3854 9.04321C16.2325 9.02514 15.0876 9.23761 14.0173 9.66825C12.9471 10.0989 11.9727 10.7391 11.1511 11.5516C10.3295 12.3641 9.67703 13.3327 9.23165 14.4009C8.78628 15.4691 8.55691 16.6157 8.55691 17.7738C8.55691 18.9319 8.78628 20.0784 9.23165 21.1467C9.67703 22.2149 10.3295 23.1834 11.1511 23.9959C11.9727 24.8084 12.9471 25.4486 14.0173 25.8793C15.0876 26.3099 16.2325 26.5224 17.3854 26.5043C19.6671 26.4686 21.8433 25.533 23.4443 23.8996C25.0453 22.2662 25.9426 20.0659 25.9426 17.7738C25.9426 15.4816 25.0453 13.2813 23.4443 11.6479C21.8433 10.0145 19.6671 9.07896 17.3854 9.04321ZM17.3854 12.1053C18.8818 12.1053 20.3169 12.7024 21.375 13.7653C22.4331 14.8281 23.0276 16.2696 23.0276 17.7727C23.0276 19.2758 22.4331 20.7173 21.375 21.7801C20.3169 22.843 18.8818 23.4401 17.3854 23.4401C15.889 23.4401 14.4538 22.843 13.3957 21.7801C12.3376 20.7173 11.7432 19.2758 11.7432 17.7727C11.7432 16.2696 12.3376 14.8281 13.3957 13.7653C14.4538 12.7024 15.889 12.1053 17.3854 12.1053Z" fill="#212529"/>
</g>
<defs>
<clipPath id="clip0_29_106">
<rect width="33.849" height="34" fill="white" transform="translate(0.45874 0.772705)"/>
</clipPath>
</defs>
</svg>
