<?xml  version="1.0" encoding="utf-8"?><svg width="24" height="24" version="1.1" id="Layer_1" xmlns="http://www.w3.org/2000/svg" xmlns:xlink="http://www.w3.org/1999/xlink" x="0px" y="0px" viewBox="0 0 122.82 122.88" style="enable-background:new 0 0 122.82 122.88" xml:space="preserve"><g><path d="M24.8,57.78c0-1.05,0.85-1.9,1.9-1.9c1.05,0,1.9,0.85,1.9,1.9v36.98c0,0.04,0,0.09,0,0.13c0.01,0.56,0.02,1.17,0.04,1.78 c0.11,5.13,0.22,10.27-0.58,15.48c-0.08,0.52-0.14,1.06-0.21,1.62c-0.38,3.33-0.85,7.39-4.01,8.91c-0.27,0.13-0.55,0.19-0.83,0.19 v0h-4.1c-0.17,0-0.33-0.02-0.48-0.06c-1.18-0.24-2.25-0.88-3.19-1.95c-0.83-0.95-1.56-2.25-2.19-3.94 c-0.06-0.17-0.1-0.35-0.11-0.53l0,0c-0.29-3.94-0.48-7.95-0.56-12.04c-0.08-4.01-0.04-8.04,0.13-12.06h0V50.79 c-3.91-1.33-6.83-3.61-8.89-6.87c-2.22-3.51-3.36-8.1-3.6-13.8l0-0.07c-0.13-4.39,0.2-8.32,1-11.78c0.83-3.56,2.14-6.64,3.95-9.24 c1.95-2.8,4.29-4.94,6.83-6.42c2.99-1.74,6.26-2.55,9.5-2.43c3.25,0.12,6.45,1.17,9.29,3.15c2.36,1.65,4.49,3.94,6.19,6.87 c2.36,4.05,3.83,10.21,3.96,16.54c0.1,4.67-0.53,9.46-2.06,13.6c-1.6,4.32-4.17,7.97-7.94,10.16c-2.23,1.3-4.85,2.06-7.91,2.12 c-1.05,0.02-1.91-0.81-1.93-1.86c-0.02-1.05,0.81-1.91,1.86-1.93c2.37-0.05,4.38-0.63,6.08-1.62c2.92-1.7,4.96-4.65,6.27-8.18 c1.37-3.7,1.93-8.01,1.84-12.22c-0.12-5.7-1.41-11.18-3.46-14.71c-1.41-2.42-3.15-4.3-5.08-5.65c-2.24-1.56-4.74-2.39-7.26-2.48 c-2.53-0.09-5.09,0.55-7.46,1.92c-2.06,1.2-3.99,2.97-5.61,5.3c-1.53,2.2-2.65,4.84-3.37,7.91C4,22.28,3.7,25.88,3.82,29.94l0,0.03 C4.03,35,4.99,38.97,6.84,41.9c1.75,2.77,4.37,4.64,7.98,5.62c0.86,0.18,1.5,0.95,1.5,1.86V92.3h-0.01c0,0.02,0,0.05,0,0.07 c-0.17,4.01-0.21,7.98-0.13,11.93c0.07,3.81,0.26,7.67,0.54,11.56c0.43,1.11,0.9,1.94,1.39,2.5c0.33,0.38,0.66,0.61,0.99,0.71h3.38 c1.03-0.89,1.34-3.53,1.59-5.73c0.07-0.64,0.14-1.24,0.22-1.75c0.76-4.97,0.65-9.91,0.55-14.84c-0.01-0.58-0.02-1.15-0.04-1.78 c-0.01-0.07-0.01-0.13-0.01-0.2V57.78L24.8,57.78z M108.22,73.11c-1.05,0-1.9-0.85-1.9-1.9c0-1.05,0.85-1.9,1.9-1.9h10.79V37.01 c-0.59-9.16-2.73-16.17-6.1-21.47c-2.78-4.37-6.44-7.6-10.78-9.92v106.05v0.03c0,0.63,0,1.34,0.02,1.83 c0.09,2.19,0.48,4.8,2.51,4.72c0.02,0,0.05,0,0.07,0v-0.01H109c2.14-0.3,2.09-2.89,2.05-5.15c-0.01-0.57-0.02-1.07-0.02-1.1v-32.2 c0-1.05,0.85-1.9,1.9-1.9c1.05,0,1.9,0.85,1.9,1.9v32.2c0,0.72,0,0.88,0.01,1.04c0.07,3.89,0.15,8.36-5.43,8.98 c-0.12,0.02-0.24,0.04-0.37,0.04h-4.3v-0.01c-5.27,0.17-6.22-4.47-6.38-8.37c-0.03-0.87-0.03-1.46-0.03-1.98v-0.03V2.6h0 c0-0.25,0.05-0.51,0.16-0.75c0.41-0.97,1.53-1.41,2.5-1c6.19,2.66,11.34,6.72,15.13,12.66c3.71,5.83,6.06,13.43,6.7,23.25 c0.01,0.08,0.02,0.16,0.02,0.25v34.2c0,1.05-0.85,1.9-1.9,1.9H108.22L108.22,73.11z M63.72,1.98c0-1.05,0.85-1.9,1.9-1.9 c1.05,0,1.9,0.85,1.9,1.9v32.16c0,1.05-0.85,1.9-1.9,1.9c-1.05,0-1.9-0.85-1.9-1.9V1.98L63.72,1.98z M71.75,1.98 c0-1.05,0.85-1.9,1.9-1.9c1.05,0,1.9,0.85,1.9,1.9v32.16c0,1.05-0.85,1.9-1.9,1.9c-1.05,0-1.9-0.85-1.9-1.9V1.98L71.75,1.98z M80.09,2c0-1.05,0.85-1.9,1.9-1.9c1.05,0,1.9,0.85,1.9,1.9v34.99c0,0.08-0.01,0.16-0.02,0.24c-0.29,4.9-1.44,8.64-3.43,11.24 c-2.16,2.82-5.2,4.27-9.11,4.38c-1.05,0.03-1.92-0.8-1.95-1.84c-0.03-1.05,0.8-1.92,1.84-1.95c2.7-0.08,4.77-1.04,6.19-2.9 c1.53-1.99,2.42-5.04,2.66-9.16l0-0.02V2L80.09,2z M55.61,1.9c0-1.05,0.85-1.9,1.9-1.9c1.05,0,1.9,0.85,1.9,1.9v34.99l0,0.04 c0.16,2.98,0.65,5.43,1.54,7.25c0.79,1.61,1.9,2.71,3.39,3.19c0.8,0.26,1.31,1.01,1.31,1.81h0v65.92c0,0.07,0,0.14-0.01,0.21 c-0.1,1.23,0.07,2.08,0.46,2.6c0.34,0.45,0.95,0.72,1.8,0.83h4.2c0.56-0.21,1-0.57,1.34-1.06c0.44-0.64,0.74-1.55,0.9-2.7V58.7 c0-1.05,0.85-1.9,1.9-1.9c1.05,0,1.9,0.85,1.9,1.9v56.4h0c0,0.08,0,0.15-0.01,0.23c-0.23,1.81-0.74,3.32-1.57,4.52 c-0.85,1.24-2,2.1-3.46,2.56c-0.23,0.09-0.47,0.15-0.73,0.15h-4.56v0c-0.07,0-0.14,0-0.21-0.01c-1.97-0.22-3.5-0.97-4.52-2.32 c-0.97-1.28-1.4-2.99-1.24-5.18V50.45c-1.88-0.95-3.3-2.5-4.32-4.6c-1.11-2.28-1.72-5.23-1.91-8.72c-0.01-0.08-0.02-0.16-0.02-0.24 V1.9L55.61,1.9z"/></g></svg>