<svg width="34" height="34" viewBox="0 0 34 34" fill="none" xmlns="http://www.w3.org/2000/svg">
<path d="M0.155945 2.43525C0.155945 1.09013 1.26873 0 2.64173 0H31.5192C32.8922 0 34.005 1.09013 34.005 2.43525V31.5648C34.005 32.9099 32.8922 34 31.5192 34H2.64173C1.26873 34 0.155945 32.9099 0.155945 31.5648V2.43525ZM10.6132 28.4622V13.1091H5.53371V28.4622H10.6132ZM8.0745 11.0118C9.84523 11.0118 10.9474 9.8345 10.9474 8.35975C10.9157 6.85313 9.84735 5.70775 8.10835 5.70775C6.36936 5.70775 5.2333 6.85525 5.2333 8.35975C5.2333 9.8345 6.33551 11.0118 8.04066 11.0118H8.0745ZM18.4577 28.4622V19.8879C18.4577 19.4289 18.4915 18.9699 18.6269 18.6426C18.9929 17.7267 19.8286 16.7769 21.2333 16.7769C23.0717 16.7769 23.8058 18.1836 23.8058 20.2491V28.4622H28.8853V19.6562C28.8853 14.9388 26.3805 12.7458 23.0379 12.7458C20.3427 12.7458 19.1347 14.2332 18.4577 15.2809V15.334H18.4238C18.4351 15.3163 18.4464 15.2986 18.4577 15.2809V13.1091H13.3803C13.4438 14.5499 13.3803 28.4622 13.3803 28.4622H18.4577Z" fill="#212529"/>
</svg>
