<svg xmlns="http://www.w3.org/2000/svg" version="1.1" xmlns:xlink="http://www.w3.org/1999/xlink" xmlns:svgjs="http://svgjs.dev/svgjs" width="1500" height="935" viewBox="0 0 1500 935"><g transform="matrix(1,0,0,1,-0.9090909090909918,0.3785425101214628)"><svg viewBox="0 0 396 247" data-background-color="#ffffff" preserveAspectRatio="xMidYMid meet" height="935" width="1500" xmlns="http://www.w3.org/2000/svg" xmlns:xlink="http://www.w3.org/1999/xlink"><g id="tight-bounds" transform="matrix(1,0,0,1,0.2400000000000091,-0.09999999999999432)"><svg viewBox="0 0 395.52 247.2" height="247.2" width="395.52"><g><svg></svg></g><g><svg viewBox="0 0 395.52 247.2" height="247.2" width="395.52"><g transform="matrix(1,0,0,1,75.54432000000001,90.72725571428572)"><svg viewBox="0 0 244.43135999999996 65.74548857142857" height="65.74548857142857" width="244.43135999999996"><g><svg viewBox="0 0 244.43135999999996 65.74548857142857" height="65.74548857142857" width="244.43135999999996"><g><svg viewBox="0 0 244.43135999999996 65.74548857142857" height="65.74548857142857" width="244.43135999999996"><g><svg viewBox="0 0 244.43135999999996 65.74548857142857" height="65.74548857142857" width="244.43135999999996"><g id="textblocktransform"><svg viewBox="0 0 244.43135999999996 65.74548857142857" height="65.74548857142857" width="244.43135999999996" id="textblock"><g><svg viewBox="0 0 244.43135999999996 65.74548857142857" height="65.74548857142857" width="244.43135999999996"><g transform="matrix(1,0,0,1,0,0)"><svg width="244.43135999999996" viewBox="4.3 -38.8 179.19 48.199999999999996" height="65.74548857142857" data-palette-color="#2c698d"><path d="M13.65 0.3L13.65 0.3Q12.6 0.3 11.38 0.25 10.15 0.2 8.93 0.1 7.7 0 6.5-0.15 5.3-0.3 4.3-0.55L4.3-0.55 4.3-34.15Q5.3-34.4 6.5-34.55 7.7-34.7 8.93-34.8 10.15-34.9 11.35-34.95 12.55-35 13.6-35L13.6-35Q16.6-35 19.23-34.55 21.85-34.1 23.78-33.02 25.7-31.95 26.8-30.2 27.9-28.45 27.9-25.9L27.9-25.9Q27.9-23.05 26.55-21.23 25.2-19.4 22.95-18.5L22.95-18.5Q26-17.6 27.8-15.65 29.6-13.7 29.6-10.15L29.6-10.15Q29.6-4.95 25.78-2.33 21.95 0.3 13.65 0.3ZM15.35-16.15L9.1-16.15 9.1-3.95Q9.65-3.9 10.4-3.85L10.4-3.85Q11.05-3.8 11.93-3.78 12.8-3.75 13.95-3.75L13.95-3.75Q16.1-3.75 18.03-4.03 19.95-4.3 21.4-5 22.85-5.7 23.73-6.95 24.6-8.2 24.6-10.1L24.6-10.1Q24.6-11.8 23.95-12.98 23.3-14.15 22.08-14.85 20.85-15.55 19.15-15.85 17.45-16.15 15.35-16.15L15.35-16.15ZM9.1-30.75L9.1-20.05 14.2-20.05Q16-20.05 17.6-20.3 19.2-20.55 20.38-21.2 21.55-21.85 22.23-22.9 22.9-23.95 22.9-25.55L22.9-25.55Q22.9-27.05 22.2-28.08 21.5-29.1 20.28-29.73 19.05-30.35 17.4-30.65 15.75-30.95 13.9-30.95L13.9-30.95Q12.05-30.95 11-30.9 9.95-30.85 9.1-30.75L9.1-30.75ZM59.1-13L59.1-13Q59.1-9.9 58.2-7.4 57.3-4.9 55.67-3.1 54.05-1.3 51.8-0.33 49.55 0.65 46.9 0.65L46.9 0.65Q44.25 0.65 42-0.33 39.75-1.3 38.12-3.1 36.5-4.9 35.6-7.4 34.7-9.9 34.7-13L34.7-13Q34.7-16.05 35.6-18.57 36.5-21.1 38.12-22.9 39.75-24.7 42-25.68 44.25-26.65 46.9-26.65L46.9-26.65Q49.55-26.65 51.8-25.68 54.05-24.7 55.67-22.9 57.3-21.1 58.2-18.57 59.1-16.05 59.1-13ZM54.25-13L54.25-13Q54.25-17.4 52.27-19.98 50.3-22.55 46.9-22.55L46.9-22.55Q43.5-22.55 41.52-19.98 39.55-17.4 39.55-13L39.55-13Q39.55-8.6 41.52-6.03 43.5-3.45 46.9-3.45L46.9-3.45Q50.3-3.45 52.27-6.03 54.25-8.6 54.25-13ZM88.59-13L88.59-13Q88.59-9.9 87.7-7.4 86.8-4.9 85.17-3.1 83.55-1.3 81.3-0.33 79.05 0.65 76.4 0.65L76.4 0.65Q73.75 0.65 71.5-0.33 69.25-1.3 67.62-3.1 66-4.9 65.09-7.4 64.2-9.9 64.2-13L64.2-13Q64.2-16.05 65.09-18.57 66-21.1 67.62-22.9 69.25-24.7 71.5-25.68 73.75-26.65 76.4-26.65L76.4-26.65Q79.05-26.65 81.3-25.68 83.55-24.7 85.17-22.9 86.8-21.1 87.7-18.57 88.59-16.05 88.59-13ZM83.75-13L83.75-13Q83.75-17.4 81.77-19.98 79.8-22.55 76.4-22.55L76.4-22.55Q73-22.55 71.02-19.98 69.05-17.4 69.05-13L69.05-13Q69.05-8.6 71.02-6.03 73-3.45 76.4-3.45L76.4-3.45Q79.8-3.45 81.77-6.03 83.75-8.6 83.75-13ZM104.54-14.3L104.54-14.3Q106.04-13.15 107.72-11.45 109.39-9.75 111.02-7.78 112.64-5.8 114.09-3.78 115.54-1.75 116.54 0L116.54 0 111.09 0Q110.04-1.75 108.67-3.58 107.29-5.4 105.79-7.08 104.29-8.75 102.74-10.15 101.19-11.55 99.79-12.5L99.79-12.5 99.79 0 95.14 0 95.14-38 99.79-38.8 99.79-15.1Q100.99-16.3 102.44-17.75 103.89-19.2 105.29-20.7 106.69-22.2 107.94-23.58 109.19-24.95 110.09-26L110.09-26 115.54-26Q114.39-24.75 113.04-23.25 111.69-21.75 110.24-20.23 108.79-18.7 107.32-17.18 105.84-15.65 104.54-14.3ZM125.89-26L125.89 0 121.24 0 121.24-26 125.89-26ZM123.54-30.7L123.54-30.7Q122.29-30.7 121.42-31.53 120.54-32.35 120.54-33.75L120.54-33.75Q120.54-35.15 121.42-35.98 122.29-36.8 123.54-36.8L123.54-36.8Q124.79-36.8 125.67-35.98 126.54-35.15 126.54-33.75L126.54-33.75Q126.54-32.35 125.67-31.53 124.79-30.7 123.54-30.7ZM133.89 0L133.89-25.25Q135.49-25.65 138.14-26.1 140.79-26.55 144.24-26.55L144.24-26.55Q147.34-26.55 149.39-25.68 151.44-24.8 152.66-23.23 153.89-21.65 154.39-19.45 154.89-17.25 154.89-14.6L154.89-14.6 154.89 0 150.24 0 150.24-13.6Q150.24-16 149.91-17.7 149.59-19.4 148.84-20.45 148.09-21.5 146.84-21.98 145.59-22.45 143.74-22.45L143.74-22.45Q142.99-22.45 142.19-22.4 141.39-22.35 140.66-22.28 139.94-22.2 139.36-22.1 138.79-22 138.54-21.95L138.54-21.95 138.54 0 133.89 0ZM178.89-1.5L178.89-2.6Q178.29-2.2 176.56-1.58 174.84-0.95 172.54-0.95L172.54-0.95Q170.19-0.95 168.11-1.7 166.04-2.45 164.49-4.03 162.94-5.6 162.04-7.95 161.14-10.3 161.14-13.55L161.14-13.55Q161.14-16.4 161.99-18.78 162.84-21.15 164.46-22.88 166.09-24.6 168.44-25.58 170.79-26.55 173.74-26.55L173.74-26.55Q176.99-26.55 179.41-26.08 181.84-25.6 183.49-25.2L183.49-25.2 183.49-2Q183.49 4 180.39 6.7 177.29 9.4 170.99 9.4L170.99 9.4Q168.54 9.4 166.36 9 164.19 8.6 162.59 8.05L162.59 8.05 163.44 4Q164.84 4.55 166.86 4.98 168.89 5.4 171.09 5.4L171.09 5.4Q175.24 5.4 177.06 3.75 178.89 2.1 178.89-1.5L178.89-1.5ZM178.84-6.7L178.84-21.9Q178.14-22.1 176.96-22.28 175.79-22.45 173.79-22.45L173.79-22.45Q170.04-22.45 168.01-20 165.99-17.55 165.99-13.5L165.99-13.5Q165.99-11.25 166.56-9.65 167.14-8.05 168.11-7 169.09-5.95 170.36-5.45 171.64-4.95 172.99-4.95L172.99-4.95Q174.84-4.95 176.39-5.48 177.94-6 178.84-6.7L178.84-6.7Z" opacity="1" transform="matrix(1,0,0,1,0,0)" fill="#2c698d" class="wordmark-text-0" data-fill-palette-color="primary" id="text-0"></path></svg></g></svg></g></svg></g></svg></g></svg></g></svg></g></svg></g><path d="M192.785 84.727L192.785 27.041 385.903 27.041 385.903 220.159 192.785 220.159 192.785 162.473 198.714 162.473 198.714 214.23 379.974 214.23 379.974 32.97 198.714 32.97 198.714 84.727Z" fill="#2c698d" stroke="transparent" data-fill-palette-color="primary"></path></svg></g><defs></defs></svg><rect width="395.52" height="247.2" fill="none" stroke="none" visibility="hidden"></rect></g></svg></g></svg>