<svg width="31" height="29" viewBox="0 0 31 29" fill="none" xmlns="http://www.w3.org/2000/svg">
<path d="M6.34375 24.4052C6.34375 24.4052 4.53125 24.4052 4.53125 22.8245C4.53125 21.2439 6.34375 16.5019 15.4062 16.5019C24.4688 16.5019 26.2812 21.2439 26.2812 22.8245C26.2812 24.4052 24.4688 24.4052 24.4688 24.4052H6.34375ZM15.4062 14.9213C16.8484 14.9213 18.2314 14.4217 19.2511 13.5324C20.2709 12.6431 20.8438 11.437 20.8438 10.1793C20.8438 8.92169 20.2709 7.71555 19.2511 6.82626C18.2314 5.93698 16.8484 5.43738 15.4062 5.43738C13.9641 5.43738 12.5811 5.93698 11.5614 6.82626C10.5416 7.71555 9.96875 8.92169 9.96875 10.1793C9.96875 11.437 10.5416 12.6431 11.5614 13.5324C12.5811 14.4217 13.9641 14.9213 15.4062 14.9213Z" fill="#545759"/>
</svg>
