<svg width="24" height="24" viewBox="0 0 24 24" fill="none" xmlns="http://www.w3.org/2000/svg">
<g clip-path="url(#clip0_88_229)">
<path fill-rule="evenodd" clip-rule="evenodd" d="M4.29704 22.2749C4.18004 22.9409 4.83704 23.4614 5.41604 23.1644L12.001 19.7804L18.5845 23.1644C19.1635 23.4614 19.8205 22.9409 19.7035 22.2764L18.4585 15.1814L23.743 10.1474C24.2365 9.67638 23.98 8.81538 23.3185 8.72238L15.9715 7.67838L12.6955 1.18788C12.6331 1.05632 12.5347 0.945159 12.4116 0.867323C12.2885 0.789487 12.1459 0.748169 12.0003 0.748169C11.8547 0.748169 11.712 0.789487 11.589 0.867323C11.4659 0.945159 11.3674 1.05632 11.305 1.18788L8.02904 7.67988L0.682041 8.72388C0.0205412 8.81688 -0.235959 9.67788 0.257541 10.1489L5.54204 15.1829L4.29704 22.2779V22.2749ZM11.6545 18.1244L6.12554 20.9654L7.16654 15.0299C7.19093 14.8933 7.18139 14.7527 7.13875 14.6206C7.09612 14.4886 7.02171 14.369 6.92204 14.2724L2.56304 10.1174L8.64104 9.25338C8.7669 9.23438 8.88627 9.18515 8.98894 9.10991C9.09161 9.03467 9.17451 8.93567 9.23054 8.82138L12.001 3.33438L14.77 8.82138C14.8261 8.93567 14.909 9.03467 15.0116 9.10991C15.1143 9.18515 15.2337 9.23438 15.3595 9.25338L21.4375 10.1159L17.0785 14.2709C16.9785 14.3675 16.9039 14.4874 16.8613 14.6198C16.8186 14.7522 16.8093 14.893 16.834 15.0299L17.875 20.9654L12.346 18.1244C12.2391 18.0693 12.1206 18.0405 12.0003 18.0405C11.88 18.0405 11.7615 18.0693 11.6545 18.1244Z" fill="black" fill-opacity="0.5"/>
</g>
<defs>
<clipPath id="clip0_88_229">
<rect width="24" height="24" fill="white"/>
</clipPath>
</defs>
</svg>
