<svg  width="24" height="24" xmlns="http://www.w3.org/2000/svg" enable-background="new 0 0 96 96" viewBox="0 0 96 96" id="swimming-pool"><path fill="#202b37" fill-rule="evenodd" d="M84,57c-6,0-6-3-12-3c-1.215,0-2.177,0.127-3,0.323V27
		c0-4.97,4.03-9,9-9c4.97,0,9,4.03,9,9c0,0.828,0.672,1.5,1.5,1.5c0.828,0,1.5-0.672,1.5-1.5c0-6.627-5.373-12-12-12
		s-12,5.373-12,12v6H36v-6c0-4.97,4.03-9,9-9c4.97,0,9,4.03,9,9c0,0.828,0.672,1.5,1.5,1.5c0.828,0,1.5-0.672,1.5-1.5
		c0-6.627-5.373-12-12-12s-12,5.373-12,12v6v3v9v3v8.677C29.761,55.904,28.785,54,24,54c-6,0-6,3-12,3c-6,0-6-3-12-3v3c6,0,6,3,12,3
		c6,0,6-3,12-3s6,3,12,3c6,0,6-3,12-3c6,0,6,3,12,3c6,0,6-3,12-3c6,0,6,3,12,3s6-3,12-3v-3C90,54,90,57,84,57z M36,36h30v9H36V36z
		 M48,54c-6,0-6,3-12,3v-9h30v7.5c-1.5,0.75-3,1.5-6,1.5C54,57,54,54,48,54z M0,78c6,0,6,3,12,3c6,0,6-3,12-3s6,3,12,3c6,0,6-3,12-3
		c6,0,6,3,12,3s6-3,12-3s6,3,12,3s6-3,12-3v3c-6,0-6,3-12,3s-6-3-12-3s-6,3-12,3s-6-3-12-3c-6,0-6,3-12,3c-6,0-6-3-12-3s-6,3-12,3
		c-6,0-6-3-12-3V78z M0,66c6,0,6,3,12,3c6,0,6-3,12-3s6,3,12,3c6,0,6-3,12-3c6,0,6,3,12,3s6-3,12-3s6,3,12,3s6-3,12-3v3
		c-6,0-6,3-12,3s-6-3-12-3s-6,3-12,3s-6-3-12-3c-6,0-6,3-12,3c-6,0-6-3-12-3s-6,3-12,3c-6,0-6-3-12-3V66z" clip-rule="evenodd"></path></svg>