<svg width="35" height="28" viewBox="0 0 35 28" fill="none" xmlns="http://www.w3.org/2000/svg">
<path d="M11.0197 27.875C23.7934 27.875 30.7812 17.2436 30.7812 8.04026C30.7812 7.74276 30.7812 7.44101 30.7685 7.14351C32.1289 6.15429 33.303 4.92958 34.2359 3.52676C32.9651 4.08957 31.6184 4.46049 30.2396 4.62751C31.692 3.75549 32.7798 2.38344 33.3008 0.766383C31.9362 1.5784 30.4427 2.14843 28.8856 2.45151C27.8388 1.33168 26.4536 0.589833 24.9445 0.340868C23.4354 0.0919022 21.8867 0.349716 20.5383 1.07437C19.1899 1.79903 18.117 2.95009 17.4858 4.34926C16.8546 5.74843 16.7003 7.31762 17.0469 8.81376C14.2856 8.67468 11.5841 7.95413 9.11787 6.69884C6.6516 5.44355 4.47556 3.68155 2.73089 1.52713C1.84518 3.06368 1.57489 4.88123 1.97488 6.6107C2.37488 8.34016 3.41518 9.85188 4.88453 10.8389C3.78346 10.8013 2.7066 10.5043 1.7408 9.97188V10.0675C1.7427 11.6772 2.29785 13.2368 3.3124 14.4827C4.32695 15.7287 5.73869 16.5846 7.30897 16.9058C6.71294 17.0707 6.09724 17.1529 5.47901 17.1501C5.04317 17.1515 4.6082 17.1109 4.18005 17.029C4.62387 18.4146 5.48805 19.6261 6.65155 20.4938C7.81505 21.3614 9.21961 21.8418 10.6685 21.8676C8.20714 23.8095 5.16675 24.8626 2.03698 24.8575C1.4855 24.8598 0.934398 24.8279 0.386841 24.7619C3.56339 26.7961 7.25248 27.8762 11.0197 27.875Z" fill="#212529"/>
</svg>
