<svg width="66" height="66" viewBox="0 0 66 66" fill="none" xmlns="http://www.w3.org/2000/svg">
<path fill-rule="evenodd" clip-rule="evenodd" d="M33 19.8C25.7098 19.8 19.8 25.7098 19.8 33C19.8 36.4635 21.1333 39.6163 23.3178 41.9723C23.4003 41.6994 23.51 41.4314 23.653 41.1755C24.1381 40.3082 24.7501 39.5062 25.4761 38.7971C26.2048 38.0854 27.0269 37.4881 27.9136 37.0162C26.5631 35.7235 25.7188 33.9168 25.7188 31.9C25.7188 27.9147 29.0156 24.75 33 24.75C36.9844 24.75 40.2812 27.9147 40.2812 31.9C40.2812 33.9168 39.4369 35.7235 38.0864 37.0162C38.9731 37.4881 39.7952 38.0854 40.5239 38.7971C41.2499 39.5062 41.8619 40.3082 42.347 41.1755C42.49 41.4314 42.5997 41.6994 42.6822 41.9723C44.8667 39.6163 46.2 36.4635 46.2 33C46.2 25.7098 40.2902 19.8 33 19.8ZM39.5029 44.4901C39.5669 44.1605 39.599 43.8511 39.6 43.577C39.6016 43.1241 39.5186 42.8789 39.4668 42.7864C39.1359 42.1947 38.7173 41.6454 38.2181 41.1579C36.8406 39.8125 34.9643 39.05 33 39.05C31.0356 39.05 29.1594 39.8125 27.7819 41.1579C27.2827 41.6454 26.8641 42.1947 26.5332 42.7864C26.4814 42.8789 26.3984 43.1241 26.4 43.577C26.401 43.8511 26.4331 44.1605 26.4972 44.4901C28.4155 45.5784 30.6331 46.2 33 46.2C35.3669 46.2 37.5845 45.5784 39.5029 44.4901ZM33 35.75C35.2356 35.75 36.9812 33.9898 36.9812 31.9C36.9812 29.8102 35.2356 28.05 33 28.05C30.7644 28.05 29.0188 29.8102 29.0188 31.9C29.0188 33.9898 30.7644 35.75 33 35.75ZM16.5 33C16.5 23.8873 23.8873 16.5 33 16.5C42.1127 16.5 49.5 23.8873 49.5 33C49.5 38.8695 46.4341 44.0217 41.8242 46.9444C39.2712 48.563 36.2425 49.5 33 49.5C29.7575 49.5 26.7288 48.563 24.1758 46.9444C19.5659 44.0217 16.5 38.8695 16.5 33Z" fill="#235471"/>
</svg>
